<svg height="512.00104pt" viewBox="0 0 512.00104 512.00104" width="512.00104pt" xmlns="http://www.w3.org/2000/svg">
    <path
        d="m512 256c0 141.386719-114.613281 256-256 256-141.382812 0-256-114.613281-256-256 0-141.382812 114.617188-256 256-256 141.386719 0 256 114.617188 256 256zm0 0"
        fill="#f74866"/>
    <path
        d="m256 438.417969c-100.585938 0-182.417969-81.832031-182.417969-182.417969s81.832031-182.417969 182.417969-182.417969 182.417969 81.832031 182.417969 182.417969-81.832031 182.417969-182.417969 182.417969zm0 0"
        fill="#f2f2f2"/>
    <path
        d="m256 364.835938c-60.011719 0-108.835938-48.824219-108.835938-108.835938s48.824219-108.835938 108.835938-108.835938 108.835938 48.824219 108.835938 108.835938-48.824219 108.835938-108.835938 108.835938zm0 0"
        fill="#f74866"/>
    <path
        d="m256 294.785156c-21.386719 0-38.785156-17.398437-38.785156-38.785156s17.398437-38.785156 38.785156-38.785156 38.785156 17.398437 38.785156 38.785156-17.398437 38.785156-38.785156 38.785156zm0 0"
        fill="#f2f2f2"/>
    <path
        d="m256 263.832031c-2.003906 0-4.007812-.765625-5.539062-2.292969l-128.925782-128.925781c-3.058594-3.0625-3.058594-8.019531 0-11.078125s8.019532-3.058594 11.078125 0l128.925781 128.925782c3.058594 3.058593 3.058594 8.019531 0 11.078124-1.53125 1.527344-3.535156 2.292969-5.539062 2.292969zm0 0"
        fill="#3b485b"/>
    <path d="m170.5 98.128906-88.550781-88.550781-16.246094 56.125 88.550781 88.550781zm0 0" fill="#ffc627"/>
    <path d="m154.253906 154.253906-88.550781-88.550781-56.125 16.246094 88.550781 88.550781zm0 0" fill="#eaad18"/>
</svg>
